<?xml version="1.0" encoding="UTF-8" standalone="no"?>
<svg
   width="1024"
   height="1024"
   viewBox="0 0 1024 1024"
   version="1.1"
   xml:space="preserve"
   style="clip-rule:evenodd;fill-rule:evenodd;stroke-linejoin:round;stroke-miterlimit:2"
   id="svg13"
   sodipodi:docname="Richter Customs - Logo.svg"
   inkscape:export-filename="Richter Customs - Logo.png"
   inkscape:export-xdpi="96"
   inkscape:export-ydpi="96"
   inkscape:version="1.3 (0e150ed6c4, 2023-07-21)"
   xmlns:inkscape="http://www.inkscape.org/namespaces/inkscape"
   xmlns:sodipodi="http://sodipodi.sourceforge.net/DTD/sodipodi-0.dtd"
   xmlns="http://www.w3.org/2000/svg"
   xmlns:svg="http://www.w3.org/2000/svg"><defs
   id="defs13" /><sodipodi:namedview
   id="namedview13"
   pagecolor="#ffffff"
   bordercolor="#000000"
   borderopacity="0.25"
   inkscape:showpageshadow="2"
   inkscape:pageopacity="0.0"
   inkscape:pagecheckerboard="0"
   inkscape:deskcolor="#d1d1d1"
   inkscape:zoom="0.51240603"
   inkscape:cx="642.06894"
   inkscape:cy="447.887"
   inkscape:window-width="1599"
   inkscape:window-height="879"
   inkscape:window-x="0"
   inkscape:window-y="0"
   inkscape:window-maximized="1"
   inkscape:current-layer="g10" />&#10;    <g
   transform="translate(-75253.6,-1015.71)"
   id="g13">&#10;        <g
   transform="matrix(0.987883,0,0,0.987883,58578,126.668)"
   id="g12">&#10;            <g
   transform="matrix(0.41548,0,0,0.41548,-45946.6,344.217)"
   id="g10">&#10;                <g
   transform="matrix(0.27208987,0,0,0.27208987,117346.82,3101.631)"
   id="g1">&#10;                    <path
   d="m 128034,1149.45 1,213.25 c 0,1.06 -1,2.08 -2,2.83 0,0.75 -1,1.17 -2,1.17 h -36 c -2,0 -4,-1.79 -4,-4 v -247.59 c 0,-1.06 0,-2.08 1,-2.83 1,-0.75 2,-1.17 3,-1.17 h 170 c 59,0 103,28.48 103,81.42 0,44.18 -31,71.2 -75,79.24 l 77,88.3 c 1,1.18 1,2.86 1,4.29 -1,1.43 -3,2.34 -4,2.34 h -45 l -80,-92.74 h -60 c -1,0 -2,-0.42 -3,-1.17 0,-0.75 -1,-1.77 -1,-2.83 v -29.61 c 0,-1.06 1,-2.08 1,-2.83 1,-0.75 2,-1.17 3,-1.17 h 80 c 36,0 61,-11.69 61,-43.45 0,-31.77 -25,-43.45 -61,-43.45 z m 1855,0 v 213.25 c 0,1.06 0,2.08 -1,2.83 -1,0.75 -2,1.17 -3,1.17 h -36 c -2,0 -4,-1.79 -4,-4 v -247.59 c 0,-1.06 1,-2.08 2,-2.83 0,-0.75 1,-1.17 2,-1.17 h 170 c 60,0 104,28.48 104,81.42 0,44.18 -31,71.2 -76,79.24 l 77,88.3 c 1,1.18 2,2.86 1,4.29 -1,1.43 -2,2.34 -4,2.34 h -45 l -79,-92.74 h -60 c -1,0 -2,-0.42 -3,-1.17 -1,-0.75 -1,-1.77 -1,-2.83 v -29.61 c 0,-1.06 0,-2.08 1,-2.83 1,-0.75 2,-1.17 3,-1.17 h 79 c 37,0 62,-11.69 62,-43.45 0,-31.77 -25,-43.45 -62,-43.45 z m -1501,217.25 h -36 c -2,0 -4,-1.79 -4,-4 v -247.59 c 0,-2.21 2,-4 4,-4 h 36 c 2,0 4,1.79 4,4 v 247.59 c 0,2.21 -2,4 -4,4 z m 1063,-251.59 v 30.34 c 0,1.06 0,2.07 -1,2.82 -1,0.75 -2,1.18 -3,1.18 h -112 v 213.25 c 0,1.06 -1,2.08 -2,2.83 0,0.75 -1,1.17 -2,1.17 h -36 c -1,0 -2,-0.42 -3,-1.17 -1,-0.75 -1,-1.77 -1,-2.83 v -213.25 h -112 c -2,0 -4,-1.8 -4,-4 v -30.34 c 0,-1.06 0,-2.08 1,-2.83 1,-0.75 2,-1.17 3,-1.17 h 268 c 1,0 2,0.42 3,1.17 1,0.75 1,1.77 1,2.83 z m -340,0 v 247.59 c 0,2.21 -2,4 -4,4 h -36 c -2,0 -4,-1.79 -4,-4 v -247.59 c 0,-2.21 2,-4 4,-4 h 36 c 2,0 4,1.79 4,4 z m -237,0 v 247.59 c 0,2.21 -2,4 -4,4 h -36 c -2,0 -4,-1.79 -4,-4 v -247.59 c 0,-2.21 2,-4 4,-4 h 36 c 2,0 4,1.79 4,4 z m 160,105.98 v 35.63 c 0,2.21 -2,4 -4,4 h -36 c -2,0 -4,-1.79 -4,-4 v -35.63 c 0,-2.21 2,-4 4,-4 h 36 c 2,0 4,1.79 4,4 z m -87,0.36 v 35.64 c 0,2.21 -2,4 -4,4 h -36 c -2,0 -4,-1.79 -4,-4 v -35.64 c 0,-2.21 2,-4 4,-4 h 36 c 2,0 4,1.79 4,4 z m 612,-72 v 178.91 h 207 c 1,0 2,0.43 3,1.18 0,0.75 1,1.76 1,2.82 v 30.34 c 0,1.06 -1,2.08 -1,2.83 -1,0.75 -2,1.17 -3,1.17 h -247 c -1,0 -2,-0.42 -3,-1.17 0,-0.75 -1,-1.77 -1,-2.83 v -247.59 c 0,-2.21 2,-4 4,-4 h 243 c 1,0 2,0.42 3,1.17 1,0.75 1,1.77 1,2.83 v 30.34 c 0,1.06 0,2.07 -1,2.82 -1,0.75 -2,1.18 -3,1.18 z m 43,68.28 h 127 c 3,0 4,1.79 4,4 v 30.34 c 0,2.21 -1,4 -4,4 h -127 z m -996,148.97 c -71,-0.41 -127,-57.52 -127,-127.8 0,-70.27 56,-127.38 127,-127.79 v 0 h 121 c 2,0 4,1.79 4,4 v 31.88 c 0,2.21 -2,4 -4,4 h -121 c -46,0 -83,41.6 -83,87.91 0,46.31 37,87.57 83,87.57 h 121 c 2,0 4,1.79 4,4 v 32.23 c 0,1.06 -1,2.08 -2,2.83 0,0.75 -1,1.17 -2,1.17 z"
   id="path1" />&#10;                </g>&#10;                <g
   id="g9">&#10;                    &#10;                    &#10;                    &#10;                    &#10;                    &#10;                    &#10;                    &#10;                </g>&#10;            </g>&#10;            &#10;        </g>&#10;    </g>&#10;</svg>
