{
	"asset":{
		"generator":"Khronos glTF Blender I/O v3.6.6",
		"version":"2.0"
	},
	"extensionsUsed":[
		"KHR_materials_specular",
		"KHR_materials_ior"
	],
	"scene":0,
	"scenes":[
		{
			"name":"Scene",
			"nodes":[
				0,
				1,
				2,
				3
			]
		}
	],
	"nodes":[
		{
			"mesh":0,
			"name":"Blat.001",
			"scale":[
				0.009999999776482582,
				0.009999999776482582,
				0.009999999776482582
			],
			"translation":[
				0,
				0.41208478808403015,
				-1.2000000476837158
			]
		},
		{
			"mesh":1,
			"name":"Blat_obwod",
			"scale":[
				0.009999999776482582,
				0.009999999776482582,
				0.009999999776482582
			],
			"translation":[
				0,
				0.41208478808403015,
				-1.2000000476837158
			]
		},
		{
			"mesh":2,
			"name":"Stolik_laczniki",
			"scale":[
				0.009999999776482582,
				0.009999999776482582,
				0.009999999776482582
			],
			"translation":[
				0.24408675730228424,
				-0.04347279667854309,
				-1.2000000476837158
			]
		},
		{
			"mesh":3,
			"name":"Stolik_nogi002",
			"scale":[
				0.009999999776482582,
				0.010843240655958652,
				0.009999999776482582
			],
			"translation":[
				0.24408675730228424,
				0.001544952392578125,
				-1.2000000476837158
			]
		}
	],
	"materials":[
		{
			"doubleSided":true,
			"name":"Stripes",
			"pbrMetallicRoughness":{
				"baseColorFactor":[
					0.800000011920929,
					0.800000011920929,
					0.800000011920929,
					1
				],
				"roughnessFactor":0.10000000149011612
			}
		},
		{
			"doubleSided":true,
			"extensions":{
				"KHR_materials_specular":{
					"specularColorFactor":[
						2.371357614441398,
						2.371357614441398,
						2.371357614441398
					]
				},
				"KHR_materials_ior":{
					"ior":1.4500000476837158
				}
			},
			"name":"Paint_Main_Black.002",
			"pbrMetallicRoughness":{
				"baseColorFactor":[
					0.031115656718611717,
					0.031115656718611717,
					0.031115656718611717,
					1
				],
				"metallicFactor":0,
				"roughnessFactor":0
			}
		},
		{
			"doubleSided":true,
			"name":"Chrome",
			"pbrMetallicRoughness":{
				"baseColorFactor":[
					0.800000011920929,
					0.800000011920929,
					0.800000011920929,
					1
				],
				"roughnessFactor":0
			}
		}
	],
	"meshes":[
		{
			"name":"Mesh.001",
			"primitives":[
				{
					"attributes":{
						"POSITION":0,
						"TEXCOORD_0":1,
						"TEXCOORD_1":2,
						"NORMAL":3
					},
					"indices":4,
					"material":0
				}
			]
		},
		{
			"name":"Mesh",
			"primitives":[
				{
					"attributes":{
						"POSITION":5,
						"TEXCOORD_0":6,
						"TEXCOORD_1":7,
						"NORMAL":8
					},
					"indices":9,
					"material":1
				}
			]
		},
		{
			"name":"Mesh.057",
			"primitives":[
				{
					"attributes":{
						"POSITION":10,
						"NORMAL":11
					},
					"indices":12,
					"material":2
				}
			]
		},
		{
			"name":"Mesh.053",
			"primitives":[
				{
					"attributes":{
						"POSITION":13,
						"NORMAL":14
					},
					"indices":15,
					"material":2
				}
			]
		}
	],
	"accessors":[
		{
			"bufferView":0,
			"componentType":5126,
			"count":8417,
			"max":[
				59.007564544677734,
				2.0100021362304688,
				18.25496482849121
			],
			"min":[
				-59.00937271118164,
				0.05515269935131073,
				-18.25496482849121
			],
			"type":"VEC3"
		},
		{
			"bufferView":1,
			"componentType":5126,
			"count":8417,
			"type":"VEC2"
		},
		{
			"bufferView":2,
			"componentType":5126,
			"count":8417,
			"type":"VEC2"
		},
		{
			"bufferView":3,
			"componentType":5126,
			"count":8417,
			"type":"VEC3"
		},
		{
			"bufferView":4,
			"componentType":5123,
			"count":44160,
			"type":"SCALAR"
		},
		{
			"bufferView":5,
			"componentType":5126,
			"count":28856,
			"max":[
				59,
				2.0000081062316895,
				49.999961853027344
			],
			"min":[
				-59,
				-1.0676186497360352e-12,
				-49.999961853027344
			],
			"type":"VEC3"
		},
		{
			"bufferView":6,
			"componentType":5126,
			"count":28856,
			"type":"VEC2"
		},
		{
			"bufferView":7,
			"componentType":5126,
			"count":28856,
			"type":"VEC2"
		},
		{
			"bufferView":8,
			"componentType":5126,
			"count":28856,
			"type":"VEC3"
		},
		{
			"bufferView":9,
			"componentType":5123,
			"count":158100,
			"type":"SCALAR"
		},
		{
			"bufferView":10,
			"componentType":5126,
			"count":704,
			"max":[
				4.771308898925781,
				45.900001525878906,
				23.176671981811523
			],
			"min":[
				-54.10540771484375,
				4.571451187133789,
				-23.176671981811523
			],
			"type":"VEC3"
		},
		{
			"bufferView":11,
			"componentType":5126,
			"count":704,
			"type":"VEC3"
		},
		{
			"bufferView":12,
			"componentType":5123,
			"count":2112,
			"type":"SCALAR"
		},
		{
			"bufferView":13,
			"componentType":5126,
			"count":392960,
			"max":[
				6.8357672691345215,
				37.89999771118164,
				24.915464401245117
			],
			"min":[
				-56.0589599609375,
				0,
				-24.91547966003418
			],
			"type":"VEC3"
		},
		{
			"bufferView":14,
			"componentType":5126,
			"count":392960,
			"type":"VEC3"
		},
		{
			"bufferView":15,
			"componentType":5125,
			"count":2349504,
			"type":"SCALAR"
		}
	],
	"bufferViews":[
		{
			"buffer":0,
			"byteLength":101004,
			"byteOffset":0,
			"target":34962
		},
		{
			"buffer":0,
			"byteLength":67336,
			"byteOffset":101004,
			"target":34962
		},
		{
			"buffer":0,
			"byteLength":67336,
			"byteOffset":168340,
			"target":34962
		},
		{
			"buffer":0,
			"byteLength":101004,
			"byteOffset":235676,
			"target":34962
		},
		{
			"buffer":0,
			"byteLength":88320,
			"byteOffset":336680,
			"target":34963
		},
		{
			"buffer":0,
			"byteLength":346272,
			"byteOffset":425000,
			"target":34962
		},
		{
			"buffer":0,
			"byteLength":230848,
			"byteOffset":771272,
			"target":34962
		},
		{
			"buffer":0,
			"byteLength":230848,
			"byteOffset":1002120,
			"target":34962
		},
		{
			"buffer":0,
			"byteLength":346272,
			"byteOffset":1232968,
			"target":34962
		},
		{
			"buffer":0,
			"byteLength":316200,
			"byteOffset":1579240,
			"target":34963
		},
		{
			"buffer":0,
			"byteLength":8448,
			"byteOffset":1895440,
			"target":34962
		},
		{
			"buffer":0,
			"byteLength":8448,
			"byteOffset":1903888,
			"target":34962
		},
		{
			"buffer":0,
			"byteLength":4224,
			"byteOffset":1912336,
			"target":34963
		},
		{
			"buffer":0,
			"byteLength":4715520,
			"byteOffset":1916560,
			"target":34962
		},
		{
			"buffer":0,
			"byteLength":4715520,
			"byteOffset":6632080,
			"target":34962
		},
		{
			"buffer":0,
			"byteLength":9398016,
			"byteOffset":11347600,
			"target":34963
		}
	],
	"buffers":[
		{
			"byteLength":20745616,
			"uri":"untitled.bin"
		}
	]
}
