{
	"asset":{
		"generator":"Khronos glTF Blender I/O v3.6.6",
		"version":"2.0"
	},
	"extensionsUsed":[
		"KHR_materials_specular",
		"KHR_materials_ior"
	],
	"scene":0,
	"scenes":[
		{
			"name":"Scene",
			"nodes":[
				5
			]
		}
	],
	"nodes":[
		{
			"mesh":0,
			"name":"Logo_Porsche.004",
			"rotation":[
				-0.5744144916534424,
				0.40940001606941223,
				0.5744302868843079,
				0.4152945876121521
			],
			"translation":[
				0.11057233065366745,
				-0.1588612198829651,
				-1.208052158355713
			]
		},
		{
			"mesh":1,
			"name":"Plane.001",
			"rotation":[
				0.00010697903780965135,
				-0.0003480634477455169,
				-0.29379016160964966,
				0.9558699727058411
			],
			"scale":[
				0.5459869503974915,
				0.546964704990387,
				0.48806795477867126
			],
			"translation":[
				0,
				0,
				-1.208364725112915
			]
		},
		{
			"mesh":2,
			"name":"Plane.047",
			"rotation":[
				0.00010697085235733539,
				-0.0003480627783574164,
				-0.29379022121429443,
				0.9558699727058411
			],
			"scale":[
				0.5485001802444458,
				0.5485002994537354,
				0.4886927902698517
			],
			"translation":[
				-0.8758897185325623,
				0.09549492597579956,
				-1.2090038061141968
			]
		},
		{
			"mesh":3,
			"name":"Plane.049",
			"rotation":[
				0.00010697085235733539,
				-0.0003480627783574164,
				-0.29379022121429443,
				0.9558699727058411
			],
			"scale":[
				0.5485001802444458,
				0.5485002994537354,
				0.4886927902698517
			],
			"translation":[
				-0.8758897185325623,
				0.09549492597579956,
				-1.2090038061141968
			]
		},
		{
			"mesh":4,
			"name":"stolik.006",
			"rotation":[
				0.7071065902709961,
				-0.0002575483522377908,
				0.00025754832313396037,
				0.7071069478988647
			],
			"scale":[
				0.038270242512226105,
				0.038270242512226105,
				0.03827022388577461
			],
			"translation":[
				-0.6700214743614197,
				-0.3362456262111664,
				-0.7276453971862793
			]
		},
		{
			"children":[
				0,
				1,
				2,
				3,
				4
			],
			"name":"Porsche_table",
			"translation":[
				0,
				0.33761873841285706,
				1.2000000476837158
			]
		}
	],
	"materials":[
		{
			"alphaMode":"BLEND",
			"doubleSided":true,
			"name":"Material.004",
			"pbrMetallicRoughness":{
				"baseColorTexture":{
					"index":0
				},
				"metallicFactor":0,
				"roughnessFactor":0.5
			}
		},
		{
			"doubleSided":true,
			"name":"Chrome.002",
			"pbrMetallicRoughness":{
				"baseColorFactor":[
					0.800000011920929,
					0.800000011920929,
					0.800000011920929,
					1
				],
				"metallicFactor":0.4010840058326721,
				"roughnessFactor":0.2968254089355469
			}
		},
		{
			"doubleSided":true,
			"name":"Glass",
			"pbrMetallicRoughness":{
				"baseColorFactor":[
					0.800000011920929,
					0.800000011920929,
					0.800000011920929,
					0.10000000149011612
				],
				"metallicFactor":0,
				"roughnessFactor":0.4000000059604645
			}
		},
		{
			"doubleSided":true,
			"extensions":{
				"KHR_materials_specular":{
					"specularColorFactor":[
						2.371357614441398,
						2.371357614441398,
						2.371357614441398
					]
				},
				"KHR_materials_ior":{
					"ior":1.4500000476837158
				}
			},
			"name":"Paint_Main_Black",
			"pbrMetallicRoughness":{
				"baseColorFactor":[
					0.006653266027569771,
					0.006653266027569771,
					0.006653266027569771,
					1
				],
				"roughnessFactor":0
			}
		},
		{
			"alphaMode":"BLEND",
			"doubleSided":true,
			"extensions":{
				"KHR_materials_specular":{
					"specularColorFactor":[
						2.371357614441398,
						2.371357614441398,
						2.371357614441398
					]
				},
				"KHR_materials_ior":{
					"ior":1.4500000476837158
				}
			},
			"name":"TopNew",
			"pbrMetallicRoughness":{
				"baseColorTexture":{
					"index":1
				},
				"metallicFactor":0,
				"roughnessFactor":0.20000000298023224
			}
		},
		{
			"doubleSided":true,
			"extensions":{
				"KHR_materials_specular":{
					"specularColorFactor":[
						2.371357614441398,
						2.371357614441398,
						2.371357614441398
					]
				},
				"KHR_materials_ior":{
					"ior":1.4500000476837158
				}
			},
			"name":"Paint_Main",
			"pbrMetallicRoughness":{
				"baseColorFactor":[
					0.46268969774246216,
					0.46268969774246216,
					0.46268969774246216,
					1
				],
				"roughnessFactor":0.10979381203651428
			}
		}
	],
	"meshes":[
		{
			"name":"Mesh.007",
			"primitives":[
				{
					"attributes":{
						"POSITION":0,
						"TEXCOORD_0":1,
						"NORMAL":2
					},
					"indices":3,
					"material":0
				},
				{
					"attributes":{
						"POSITION":4,
						"TEXCOORD_0":5,
						"NORMAL":6
					},
					"indices":7,
					"material":1
				}
			]
		},
		{
			"name":"Plane.001",
			"primitives":[
				{
					"attributes":{
						"POSITION":8,
						"TEXCOORD_0":9,
						"NORMAL":10
					},
					"indices":11,
					"material":2
				}
			]
		},
		{
			"name":"Mesh.006",
			"primitives":[
				{
					"attributes":{
						"POSITION":12,
						"TEXCOORD_0":13,
						"NORMAL":14
					},
					"indices":15,
					"material":3
				}
			]
		},
		{
			"name":"Mesh.005",
			"primitives":[
				{
					"attributes":{
						"POSITION":16,
						"TEXCOORD_0":17,
						"NORMAL":18
					},
					"indices":19,
					"material":4
				}
			]
		},
		{
			"name":"stolik.001",
			"primitives":[
				{
					"attributes":{
						"POSITION":20,
						"TEXCOORD_0":21,
						"NORMAL":22
					},
					"indices":23,
					"material":5
				}
			]
		}
	],
	"textures":[
		{
			"sampler":0,
			"source":0
		},
		{
			"sampler":1,
			"source":1
		}
	],
	"images":[
		{
			"mimeType":"image/png",
			"name":"Richter_sygnet",
			"uri":"Richter_sygnet.png"
		},
		{
			"mimeType":"image/png",
			"name":"Richter Customs - Logo",
			"uri":"Richter%20Customs%20-%20Logo.png"
		}
	],
	"accessors":[
		{
			"bufferView":0,
			"componentType":5126,
			"count":2460,
			"max":[
				0.024406027048826218,
				0.030763108283281326,
				0.006935885176062584
			],
			"min":[
				-0.02440602332353592,
				-0.03127235546708107,
				-0.005808182526379824
			],
			"type":"VEC3"
		},
		{
			"bufferView":1,
			"componentType":5126,
			"count":2460,
			"type":"VEC2"
		},
		{
			"bufferView":2,
			"componentType":5126,
			"count":2460,
			"type":"VEC3"
		},
		{
			"bufferView":3,
			"componentType":5123,
			"count":13056,
			"type":"SCALAR"
		},
		{
			"bufferView":4,
			"componentType":5126,
			"count":1456,
			"max":[
				0.027117397636175156,
				0.03421226143836975,
				0.006737659219652414
			],
			"min":[
				-0.027117399498820305,
				-0.0335443839430809,
				-0.010365343652665615
			],
			"type":"VEC3"
		},
		{
			"bufferView":5,
			"componentType":5126,
			"count":1456,
			"type":"VEC2"
		},
		{
			"bufferView":6,
			"componentType":5126,
			"count":1456,
			"type":"VEC3"
		},
		{
			"bufferView":7,
			"componentType":5123,
			"count":8064,
			"type":"SCALAR"
		},
		{
			"bufferView":8,
			"componentType":5126,
			"count":8018,
			"max":[
				0.8633840680122375,
				0.5830463767051697,
				0.922454833984375
			],
			"min":[
				-0.9456132650375366,
				-0.6484923958778381,
				-0.9224548935890198
			],
			"type":"VEC3"
		},
		{
			"bufferView":9,
			"componentType":5126,
			"count":8018,
			"type":"VEC2"
		},
		{
			"bufferView":10,
			"componentType":5126,
			"count":8018,
			"type":"VEC3"
		},
		{
			"bufferView":11,
			"componentType":5123,
			"count":48096,
			"type":"SCALAR"
		},
		{
			"bufferView":12,
			"componentType":5126,
			"count":56807,
			"max":[
				2.535733461380005,
				1.4792217016220093,
				1.008521556854248
			],
			"min":[
				0.4289974570274353,
				-0.06429138034582138,
				-1.0085214376449585
			],
			"type":"VEC3"
		},
		{
			"bufferView":13,
			"componentType":5126,
			"count":56807,
			"type":"VEC2"
		},
		{
			"bufferView":14,
			"componentType":5126,
			"count":56807,
			"type":"VEC3"
		},
		{
			"bufferView":15,
			"componentType":5123,
			"count":322560,
			"type":"SCALAR"
		},
		{
			"bufferView":16,
			"componentType":5126,
			"count":8960,
			"max":[
				2.5240774154663086,
				1.5000759363174438,
				1.0152819156646729
			],
			"min":[
				0.4156021177768707,
				0.061415866017341614,
				-1.0037002563476562
			],
			"type":"VEC3"
		},
		{
			"bufferView":17,
			"componentType":5126,
			"count":8960,
			"type":"VEC2"
		},
		{
			"bufferView":18,
			"componentType":5126,
			"count":8960,
			"type":"VEC3"
		},
		{
			"bufferView":19,
			"componentType":5123,
			"count":53760,
			"type":"SCALAR"
		},
		{
			"bufferView":20,
			"componentType":5126,
			"count":75968,
			"max":[
				35.101802825927734,
				-1.2705234289169312,
				0
			],
			"min":[
				5.680115222930908,
				-23.865177154541016,
				-6.427026271820068
			],
			"type":"VEC3"
		},
		{
			"bufferView":21,
			"componentType":5126,
			"count":75968,
			"type":"VEC2"
		},
		{
			"bufferView":22,
			"componentType":5126,
			"count":75968,
			"type":"VEC3"
		},
		{
			"bufferView":23,
			"componentType":5125,
			"count":371844,
			"type":"SCALAR"
		}
	],
	"bufferViews":[
		{
			"buffer":0,
			"byteLength":29520,
			"byteOffset":0,
			"target":34962
		},
		{
			"buffer":0,
			"byteLength":19680,
			"byteOffset":29520,
			"target":34962
		},
		{
			"buffer":0,
			"byteLength":29520,
			"byteOffset":49200,
			"target":34962
		},
		{
			"buffer":0,
			"byteLength":26112,
			"byteOffset":78720,
			"target":34963
		},
		{
			"buffer":0,
			"byteLength":17472,
			"byteOffset":104832,
			"target":34962
		},
		{
			"buffer":0,
			"byteLength":11648,
			"byteOffset":122304,
			"target":34962
		},
		{
			"buffer":0,
			"byteLength":17472,
			"byteOffset":133952,
			"target":34962
		},
		{
			"buffer":0,
			"byteLength":16128,
			"byteOffset":151424,
			"target":34963
		},
		{
			"buffer":0,
			"byteLength":96216,
			"byteOffset":167552,
			"target":34962
		},
		{
			"buffer":0,
			"byteLength":64144,
			"byteOffset":263768,
			"target":34962
		},
		{
			"buffer":0,
			"byteLength":96216,
			"byteOffset":327912,
			"target":34962
		},
		{
			"buffer":0,
			"byteLength":96192,
			"byteOffset":424128,
			"target":34963
		},
		{
			"buffer":0,
			"byteLength":681684,
			"byteOffset":520320,
			"target":34962
		},
		{
			"buffer":0,
			"byteLength":454456,
			"byteOffset":1202004,
			"target":34962
		},
		{
			"buffer":0,
			"byteLength":681684,
			"byteOffset":1656460,
			"target":34962
		},
		{
			"buffer":0,
			"byteLength":645120,
			"byteOffset":2338144,
			"target":34963
		},
		{
			"buffer":0,
			"byteLength":107520,
			"byteOffset":2983264,
			"target":34962
		},
		{
			"buffer":0,
			"byteLength":71680,
			"byteOffset":3090784,
			"target":34962
		},
		{
			"buffer":0,
			"byteLength":107520,
			"byteOffset":3162464,
			"target":34962
		},
		{
			"buffer":0,
			"byteLength":107520,
			"byteOffset":3269984,
			"target":34963
		},
		{
			"buffer":0,
			"byteLength":911616,
			"byteOffset":3377504,
			"target":34962
		},
		{
			"buffer":0,
			"byteLength":607744,
			"byteOffset":4289120,
			"target":34962
		},
		{
			"buffer":0,
			"byteLength":911616,
			"byteOffset":4896864,
			"target":34962
		},
		{
			"buffer":0,
			"byteLength":1487376,
			"byteOffset":5808480,
			"target":34963
		}
	],
	"samplers":[
		{
			"magFilter":9729,
			"minFilter":9987
		},
		{
			"magFilter":9729,
			"minFilter":9987,
			"wrapS":33071,
			"wrapT":33071
		}
	],
	"buffers":[
		{
			"byteLength":7295856,
			"uri":"TablePorsche.bin"
		}
	]
}
